# xmcd
#
# Track frame offsets:
#	180
#	13559
#	27309
#	42057
#	58791
#	74318
#	90065
#	101762
#	112372
#	127262
#	142701
#	153725
#	169228
#	183493
#	195686
#	208258
#
# Disc length: 2930
#
# Revision: 2
# Processed by: cddbd v1.5.1PL0 Copyright (c) Steve Scherf et al.
# Submitted via: CDValet v3.31 - Copyright (c) 1997 Greg Leichner
# Normalized: r1:DSETVAR1,TDELIM( - ),TSWAP
#
DISCID=e60b7010
DTITLE=Various Artist - *Super Trucker Songs Vol. 2 CD1*
DYEAR=1900
DGENRE=
TTITLE0=Heywood Lane - Keep On Rolling
TTITLE1=Lee Makley - Texas Tornado
TTITLE2=Jimmy Nail - Honky Tonk Man
TTITLE3=Jimmy Nail - Alaska Highway
TTITLE4=Lee Makley - Too Far From Heaven
TTITLE5=Lee Makley - Mexico
TTITLE6=Heywood Lane - With A Woman Like You
TTITLE7=Helt Oncale and Bob Barnett - A Buddy Of Mine
TTITLE8=Laney Hicks - Tell Me Why
TTITLE9=Jimmy Nail - Memories Of Fate
TTITLE10=Jimmy Nail - I Love It Through And Through
TTITLE11=John William Roberts - A Song For Louise
TTITLE12=John William Roberts - Starlight
TTITLE13=John William Roberts - Homeward Bound
TTITLE14=Lee Makley - Back To Houston
TTITLE15=Laney Hicks - Girl, I Love You
EXTD=
EXTT0=
EXTT1=
EXTT2=
EXTT3=
EXTT4=
EXTT5=
EXTT6=
EXTT7=
EXTT8=
EXTT9=
EXTT10=
EXTT11=
EXTT12=
EXTT13=
EXTT14=
EXTT15=
PLAYORDER=
